<svg width="30" height="30" viewBox="0 0 30 30" fill="none" xmlns="http://www.w3.org/2000/svg">
<path fill-rule="evenodd" clip-rule="evenodd" d="M13.7563 3.12406C13.4248 3.40402 13.3662 3.6061 13.3662 3.71287C13.3662 3.81963 13.4248 4.02171 13.7563 4.30167C14.0844 4.57873 14.6033 4.86169 15.3094 5.11387C16.7151 5.61592 18.7059 5.94058 20.9405 5.94058C23.175 5.94058 25.1659 5.61592 26.5716 5.11387C27.2777 4.86169 27.7965 4.57873 28.1247 4.30167C28.4562 4.02171 28.5147 3.81963 28.5147 3.71287C28.5147 3.6061 28.4562 3.40402 28.1247 3.12406C27.7965 2.847 27.2777 2.56404 26.5716 2.31186C25.1659 1.80981 23.175 1.48515 20.9405 1.48515C18.7059 1.48515 16.7151 1.80981 15.3094 2.31186C14.6033 2.56404 14.0844 2.847 13.7563 3.12406ZM14.8099 0.913239C16.4142 0.340254 18.5818 0 20.9405 0C23.2992 0 25.4668 0.340254 27.0711 0.913239C27.8701 1.19858 28.5692 1.55566 29.0828 1.98933C29.593 2.42009 29.9999 2.99941 29.9999 3.71287C29.9999 4.42633 29.593 5.00565 29.0828 5.4364C28.5692 5.87007 27.8701 6.22715 27.0711 6.51249C25.4668 7.08548 23.2992 7.42573 20.9405 7.42573C18.5818 7.42573 16.4142 7.08548 14.8099 6.51249C14.0109 6.22715 13.3118 5.87007 12.7982 5.4364C12.288 5.00565 11.8811 4.42633 11.8811 3.71287C11.8811 2.99941 12.288 2.42009 12.7982 1.98933C13.3118 1.55566 14.0109 1.19858 14.8099 0.913239Z" fill="white"/>
<path fill-rule="evenodd" clip-rule="evenodd" d="M12.6237 3.56445C13.0338 3.56445 13.3662 3.89691 13.3662 4.30703V7.87138C13.3662 7.97813 13.4248 8.18019 13.7562 8.46012C14.0842 8.73715 14.6029 9.02011 15.309 9.2723C16.7145 9.77436 18.7053 10.0991 20.9405 10.0991C23.1756 10.0991 25.1665 9.77436 26.572 9.2723C27.278 9.02011 27.7968 8.73715 28.1248 8.46012C28.4562 8.18019 28.5147 7.97813 28.5147 7.87138V4.30703C28.5147 3.89691 28.8472 3.56445 29.2573 3.56445C29.6674 3.56445 29.9999 3.89691 29.9999 4.30703V7.87138C29.9999 8.58472 29.5931 9.164 29.083 9.59476C28.5695 10.0284 27.8705 10.3855 27.0716 10.6709C25.4674 11.2439 23.2998 11.5842 20.9405 11.5842C18.5812 11.5842 16.4136 11.2439 14.8094 10.6709C14.0105 10.3855 13.3115 10.0284 12.798 9.59476C12.2879 9.164 11.8811 8.58472 11.8811 7.87138V4.30703C11.8811 3.89691 12.2136 3.56445 12.6237 3.56445Z" fill="white"/>
<path fill-rule="evenodd" clip-rule="evenodd" d="M29.2569 7.72278C29.667 7.72278 29.9995 8.05524 29.9995 8.46535V12.0297C29.9995 12.743 29.5927 13.3223 29.0826 13.7531C28.5691 14.1868 27.8701 14.5439 27.0712 14.8292C25.467 15.4023 23.2994 15.7426 20.9401 15.7426C19.5165 15.7426 18.1676 15.6184 16.973 15.3968C16.5698 15.322 16.3035 14.9345 16.3783 14.5313C16.4531 14.1281 16.8406 13.8618 17.2439 13.9366C18.3423 14.1404 19.6002 14.2574 20.9401 14.2574C23.1753 14.2574 25.1661 13.9327 26.5716 13.4306C27.2777 13.1784 27.7964 12.8955 28.1244 12.6184C28.4558 12.3385 28.5144 12.1365 28.5144 12.0297V8.46535C28.5144 8.05524 28.8468 7.72278 29.2569 7.72278Z" fill="white"/>
<path fill-rule="evenodd" clip-rule="evenodd" d="M12.6237 7.72278C13.0338 7.72278 13.3662 8.05524 13.3662 8.46535V11.002L12.6237 11.002L11.8811 11.002V8.46535C11.8811 8.05524 12.2136 7.72278 12.6237 7.72278ZM12.6237 11.7446C12.2136 11.7446 11.8811 11.4121 11.8811 11.002L12.6237 11.002L13.3662 11.002C13.3662 11.4121 13.0338 11.7446 12.6237 11.7446Z" fill="white"/>
<path fill-rule="evenodd" clip-rule="evenodd" d="M29.2576 11.8811C29.6677 11.8811 30.0001 12.2136 30.0001 12.6237V16.188C30.0001 16.9014 29.5934 17.4808 29.0833 17.9116C28.5698 18.3454 27.8707 18.7025 27.0718 18.9878C25.4676 19.5607 23.3 19.9009 20.9408 19.9009C19.6321 19.9009 18.3876 19.7963 17.2676 19.6072C16.8632 19.5389 16.5908 19.1557 16.659 18.7513C16.7273 18.3469 17.1105 18.0745 17.5149 18.1427C18.5478 18.3172 19.7092 18.4157 20.9408 18.4157C23.1759 18.4157 25.1668 18.0912 26.5723 17.5892C27.2783 17.337 27.797 17.0541 28.125 16.777C28.4564 16.4971 28.515 16.295 28.515 16.188V12.6237C28.515 12.2136 28.8475 11.8811 29.2576 11.8811Z" fill="white"/>
<path fill-rule="evenodd" clip-rule="evenodd" d="M29.2575 16.0396C29.6676 16.0396 30.0001 16.372 30.0001 16.7821V20.3465C30.0001 21.0599 29.5934 21.6392 29.0833 22.0701C28.5698 22.5038 27.8707 22.8609 27.0718 23.1462C25.4676 23.7192 23.3 24.0593 20.9407 24.0593C19.6137 24.0593 18.352 23.9517 17.22 23.7576C16.8158 23.6882 16.5443 23.3044 16.6136 22.9002C16.6829 22.496 17.0668 22.2245 17.471 22.2938C18.5144 22.4727 19.6919 22.5742 20.9407 22.5742C23.1759 22.5742 25.1667 22.2496 26.5723 21.7476C27.2783 21.4955 27.797 21.2125 28.125 20.9355C28.4564 20.6556 28.515 20.4535 28.515 20.3465V16.7821C28.515 16.372 28.8474 16.0396 29.2575 16.0396Z" fill="white"/>
<path fill-rule="evenodd" clip-rule="evenodd" d="M1.87522 13.2231C1.54366 13.503 1.48515 13.7051 1.48515 13.8119C1.48515 13.9186 1.54366 14.1207 1.87522 14.4007C2.20334 14.6777 2.72216 14.9607 3.42827 15.2129C4.834 15.7149 6.82484 16.0396 9.05939 16.0396C11.2939 16.0396 13.2848 15.7149 14.6905 15.2129C15.3966 14.9607 15.9154 14.6777 16.2436 14.4007C16.5751 14.1207 16.6336 13.9186 16.6336 13.8119C16.6336 13.7051 16.5751 13.503 16.2436 13.2231C15.9154 12.946 15.3966 12.663 14.6905 12.4109C13.2848 11.9088 11.2939 11.5841 9.05939 11.5841C6.82484 11.5841 4.834 11.9088 3.42827 12.4109C2.72216 12.663 2.20334 12.946 1.87522 13.2231ZM2.92876 11.0122C4.53312 10.4393 6.70069 10.099 9.05939 10.099C11.4181 10.099 13.5857 10.4393 15.19 11.0122C15.989 11.2976 16.6881 11.6547 17.2017 12.0883C17.7119 12.5191 18.1188 13.0984 18.1188 13.8119C18.1188 14.5253 17.7119 15.1046 17.2017 15.5354C16.6881 15.9691 15.989 16.3262 15.19 16.6115C13.5857 17.1845 11.4181 17.5247 9.05939 17.5247C6.70069 17.5247 4.53312 17.1845 2.92876 16.6115C2.12981 16.3262 1.43067 15.9691 0.917077 15.5354C0.406931 15.1046 0 14.5253 0 13.8119C0 13.0984 0.406931 12.5191 0.917077 12.0883C1.43067 11.6547 2.12981 11.2976 2.92876 11.0122Z" fill="white"/>
<path fill-rule="evenodd" clip-rule="evenodd" d="M0.742573 13.6633C1.15268 13.6633 1.48515 13.9958 1.48515 14.4059V17.9703C1.48515 18.0772 1.54373 18.2794 1.87513 18.5593C2.20313 18.8363 2.72181 19.1192 3.42782 19.3714C4.83338 19.8734 6.8242 20.198 9.05939 20.198C11.2946 20.198 13.2854 19.8734 14.691 19.3714C15.397 19.1192 15.9157 18.8363 16.2437 18.5593C16.5751 18.2794 16.6336 18.0772 16.6336 17.9703V14.4059C16.6336 13.9958 16.9661 13.6633 17.3762 13.6633C17.7863 13.6633 18.1188 13.9958 18.1188 14.4059V17.9703C18.1188 18.6837 17.7121 19.263 17.2019 19.6939C16.6884 20.1276 15.9894 20.4847 15.1905 20.77C13.5862 21.343 11.4186 21.6831 9.05939 21.6831C6.70013 21.6831 4.53255 21.343 2.92831 20.77C2.12942 20.4847 1.43035 20.1276 0.916834 19.6939C0.406713 19.263 0 18.6837 0 17.9703V14.4059C0 13.9958 0.332461 13.6633 0.742573 13.6633Z" fill="white"/>
<path fill-rule="evenodd" clip-rule="evenodd" d="M0.742573 17.8218C1.15268 17.8218 1.48515 18.1542 1.48515 18.5644V22.1287C1.48515 22.2357 1.54373 22.4378 1.87513 22.7177C2.20313 22.9947 2.72181 23.2777 3.42782 23.5298C4.83338 24.0318 6.8242 24.3564 9.05939 24.3564C11.2946 24.3564 13.2854 24.0318 14.691 23.5298C15.397 23.2777 15.9157 22.9947 16.2437 22.7177C16.5751 22.4378 16.6336 22.2357 16.6336 22.1287V18.5644C16.6336 18.1542 16.9661 17.8218 17.3762 17.8218C17.7863 17.8218 18.1188 18.1542 18.1188 18.5644V22.1287C18.1188 22.8421 17.7121 23.4215 17.2019 23.8523C16.6884 24.286 15.9894 24.6431 15.1905 24.9285C13.5862 25.5014 11.4186 25.8416 9.05939 25.8416C6.70013 25.8416 4.53255 25.5014 2.92831 24.9285C2.12942 24.6431 1.43035 24.286 0.916834 23.8523C0.406713 23.4215 0 22.8421 0 22.1287V18.5644C0 18.1542 0.332461 17.8218 0.742573 17.8218Z" fill="white"/>
<path fill-rule="evenodd" clip-rule="evenodd" d="M0.742573 21.9802C1.15268 21.9802 1.48515 22.3127 1.48515 22.7228V26.2871C1.48515 26.3941 1.54373 26.5963 1.87513 26.8762C2.20313 27.1532 2.72181 27.4361 3.42782 27.6883C4.83338 28.1903 6.8242 28.5149 9.05939 28.5149C11.2946 28.5149 13.2854 28.1903 14.691 27.6883C15.397 27.4361 15.9157 27.1532 16.2437 26.8762C16.5751 26.5963 16.6336 26.3941 16.6336 26.2871V22.7228C16.6336 22.3127 16.9661 21.9802 17.3762 21.9802C17.7863 21.9802 18.1188 22.3127 18.1188 22.7228V26.2871C18.1188 27.0006 17.7121 27.5799 17.2019 28.0108C16.6884 28.4445 15.9894 28.8016 15.1905 29.0869C13.5862 29.6599 11.4186 30 9.05939 30C6.70013 30 4.53255 29.6599 2.92831 29.0869C2.12942 28.8016 1.43035 28.4445 0.916834 28.0108C0.406713 27.5799 0 27.0006 0 26.2871V22.7228C0 22.3127 0.332461 21.9802 0.742573 21.9802Z" fill="white"/>
</svg>
