<svg width="40" height="40" viewBox="0 0 40 40" fill="none" xmlns="http://www.w3.org/2000/svg">
<path opacity="0.5" d="M0 20C0 22.7016 0.528474 25.3212 1.57175 27.7859C2.57859 30.1686 4.02278 32.3052 5.85877 34.1412C7.69476 35.9772 9.83599 37.4214 12.2141 38.4282C14.6834 39.4715 17.2984 40 20 40C22.7016 40 25.3212 39.4715 27.7859 38.4282C30.1686 37.4214 32.3052 35.9772 34.1412 34.1412C35.9772 32.3052 37.4214 30.164 38.4282 27.7859C39.4715 25.3212 40 22.7016 40 20C40 17.2984 39.4715 14.6788 38.4282 12.2141C37.4214 9.83144 35.9772 7.69476 34.1412 5.85877C32.3052 4.02278 30.164 2.57859 27.7859 1.57175C25.3212 0.528474 22.7016 0 20 0C17.2984 0 14.6788 0.528474 12.2141 1.57175C9.83144 2.57859 7.69476 4.02278 5.85877 5.85877C4.02278 7.69476 2.57859 9.83599 1.57175 12.2141C0.528474 14.6834 0 17.2984 0 20ZM10.8884 19.0888H26.9112L21.1025 13.3394L22.3827 12.0456L30.4237 20L22.3781 27.9544L21.0979 26.6606L26.9066 20.9112H10.8884V19.0888Z" fill="white"/>
</svg>
