<svg width="30" height="30" viewBox="0 0 30 30" fill="none" xmlns="http://www.w3.org/2000/svg">
<path fill-rule="evenodd" clip-rule="evenodd" d="M0 0.910714C0 0.407741 0.407741 0 0.910714 0H11.8393C12.3423 0 12.75 0.407741 12.75 0.910714V11.8393C12.75 12.3423 12.3423 12.75 11.8393 12.75H0.910714C0.407741 12.75 0 12.3423 0 11.8393V0.910714ZM1.82143 1.82143V10.9286H10.9286V1.82143H1.82143Z" fill="white"/>
<path fill-rule="evenodd" clip-rule="evenodd" d="M0 17.4643C0 16.9317 0.407741 16.5 0.910714 16.5H11.8393C12.3423 16.5 12.75 16.9317 12.75 17.4643V29.0357C12.75 29.5683 12.3423 30 11.8393 30H0.910714C0.407741 30 0 29.5683 0 29.0357V17.4643ZM1.82143 18.4286V28.0714H10.9286V18.4286H1.82143Z" fill="white"/>
<path fill-rule="evenodd" clip-rule="evenodd" d="M16.5 17.4643C16.5 16.9317 16.9317 16.5 17.4643 16.5H29.0357C29.5683 16.5 30 16.9317 30 17.4643V29.0357C30 29.5683 29.5683 30 29.0357 30H17.4643C16.9317 30 16.5 29.5683 16.5 29.0357V17.4643ZM18.4286 18.4286V28.0714H28.0714V18.4286H18.4286Z" fill="white"/>
<path fill-rule="evenodd" clip-rule="evenodd" d="M16.5 0.910714C16.5 0.407741 16.9317 0 17.4643 0H29.0357C29.5683 0 30 0.407741 30 0.910714V11.8393C30 12.3423 29.5683 12.75 29.0357 12.75H17.4643C16.9317 12.75 16.5 12.3423 16.5 11.8393V0.910714ZM18.4286 1.82143V10.9286H28.0714V1.82143H18.4286Z" fill="white"/>
</svg>
