<svg width="27" height="30" viewBox="0 0 27 30" fill="none" xmlns="http://www.w3.org/2000/svg">
<path d="M25.8711 5.36497C25.881 5.42419 29.4714 25.947 13.3984 29.9738C13.3153 30.0028 13.223 30.0089 13.1311 29.9861L13.1314 29.985C-2.71501 26.0521 0.161999 6.11437 0.270925 5.39314C0.273808 5.36456 0.279391 5.33584 0.287811 5.30728C0.361099 5.05902 0.621841 4.91717 0.870102 4.99046L0.86978 4.99157C6.80713 6.74398 12.303 0.638128 12.6969 0.189611C12.7167 0.162852 12.7397 0.137823 12.7659 0.115055C12.9612 -0.0548207 13.2573 -0.0341975 13.4272 0.161122L13.4269 0.162944C13.4434 0.181907 19.1081 6.78924 25.2521 4.99844C25.278 4.98931 25.3049 4.98225 25.3329 4.97761C25.5883 4.93521 25.8297 5.10786 25.8721 5.36322L25.8711 5.36495V5.36497ZM24.208 7.14656C21.3386 7.52083 18.4923 6.51062 16.0642 4.91156C15.0678 4.25541 14.0046 3.41316 13.0765 2.51797C12.0776 3.46585 10.8608 4.38491 9.86647 5.00944C7.49404 6.49959 4.74861 7.42422 1.97912 7.11928C1.74592 10.0935 1.91397 13.2151 2.55428 16.0761C3.8916 22.0513 7.18539 26.4331 13.2115 28.0688C19.2198 26.139 22.5035 21.6137 23.7484 15.536C24.2581 13.0474 24.4573 9.88168 24.208 7.14652L24.208 7.14656Z" fill="white"/>
</svg>
