<svg width="30" height="29" viewBox="0 0 30 29" fill="none" xmlns="http://www.w3.org/2000/svg">
<path fill-rule="evenodd" clip-rule="evenodd" d="M15 0C15.3062 0 15.5817 0.185656 15.6959 0.469012L19.3954 9.64721L29.3006 10.3163C29.6063 10.337 29.8687 10.541 29.9633 10.8316C30.0579 11.1222 29.9658 11.441 29.7305 11.6368L22.1124 17.9782L24.5343 27.5694C24.6091 27.8656 24.4957 28.1774 24.248 28.357C24.0003 28.5366 23.6679 28.548 23.4084 28.3857L15 23.1265L6.59158 28.3857C6.3321 28.548 5.99973 28.5366 5.75199 28.357C5.50426 28.1774 5.39093 27.8656 5.46573 27.5694L7.88762 17.9782L0.269452 11.6368C0.0342255 11.441 -0.0579255 11.1222 0.0366965 10.8316C0.131318 10.541 0.393686 10.337 0.699385 10.3163L10.6046 9.64721L14.3041 0.469012C14.4183 0.185656 14.6938 0 15 0ZM15 2.75349L11.8209 10.6407C11.7135 10.9071 11.4628 11.0886 11.1756 11.108L2.66574 11.6829L9.21066 17.1309C9.43183 17.315 9.52772 17.6091 9.45737 17.8877L7.37636 26.129L14.6015 21.6099C14.8452 21.4574 15.1548 21.4574 15.3985 21.6099L22.6236 26.129L20.5426 17.8877C20.4723 17.6091 20.5682 17.315 20.7893 17.1309L27.3343 11.6829L18.8244 11.108C18.5372 11.0886 18.2865 10.9071 18.1791 10.6407L15 2.75349Z" fill="white"/>
</svg>
